Bodoni-11-Medium-Italic.ufo
<glyph name="quotesingle" format="2">
  <advance width="935"/>
  <unicode hex="0027"/>
  <outline>
    <contour>
      <point x="1105" y="2771" type="curve" smooth="yes"/>
      <point x="1027" y="2464"/>
      <point x="810" y="2337"/>
      <point x="687" y="1927" type="curve"/>
      <point x="605" y="1927" type="line"/>
      <point x="708" y="2306"/>
      <point x="618" y="2436"/>
      <point x="573" y="2743" type="curve" smooth="yes"/>
      <point x="569" y="2772"/>
      <point x="568" y="2797"/>
      <point x="568" y="2822" type="curve" smooth="yes"/>
      <point x="568" y="3002"/>
      <point x="700" y="3113"/>
      <point x="860" y="3113" type="curve" smooth="yes"/>
      <point x="1010" y="3113"/>
      <point x="1117" y="3003"/>
      <point x="1117" y="2863" type="curve" smooth="yes"/>
      <point x="1117" y="2833"/>
      <point x="1113" y="2800"/>
    </contour>
  </outline>
</glyph>
<glyph name="asterisk" format="2">
  <advance width="2600"/>
  <unicode hex="002A"/>
  <outline>
    <contour>
      <point x="1080" y="2717" type="curve" smooth="yes"/>
      <point x="1329" y="2523"/>
      <point x="1192" y="2302"/>
      <point x="1571" y="2087" type="curve"/>
      <point x="1530" y="2025" type="line"/>
      <point x="1141" y="2250"/>
      <point x="1060" y="2114"/>
      <point x="774" y="2232" type="curve" smooth="yes"/>
      <point x="594" y="2312"/>
      <point x="521" y="2500"/>
      <point x="608" y="2650" type="curve" smooth="yes"/>
      <point x="701" y="2812"/>
      <point x="916" y="2827"/>
    </contour>
    <contour>
      <point x="610" y="1848" type="curve" smooth="yes"/>
      <point x="901" y="1950"/>
      <point x="1137" y="1870"/>
      <point x="1526" y="2095" type="curve"/>
      <point x="1567" y="2025" type="line"/>
      <point x="1178" y="1800"/>
      <point x="1088" y="1602"/>
      <point x="842" y="1404" type="curve" smooth="yes"/>
      <point x="684" y="1287"/>
      <point x="489" y="1270"/>
      <point x="396" y="1430" type="curve" smooth="yes"/>
      <point x="305" y="1584"/>
      <point x="413" y="1782"/>
    </contour>
    <contour>
      <point x="1134" y="1237" type="curve" smooth="yes"/>
      <point x="1213" y="1546"/>
      <point x="1452" y="1668"/>
      <point x="1513" y="2058" type="curve"/>
      <point x="1587" y="2058" type="line"/>
      <point x="1505" y="1587"/>
      <point x="1658" y="1533"/>
      <point x="1658" y="1226" type="curve" smooth="yes"/>
      <point x="1658" y="1023"/>
      <point x="1531" y="872"/>
      <point x="1357" y="872" type="curve" smooth="yes"/>
      <point x="1193" y="872"/>
      <point x="1078" y="1012"/>
    </contour>
    <contour>
      <point x="2026" y="1409" type="curve" smooth="yes"/>
      <point x="1777" y="1603"/>
      <point x="1908" y="1815"/>
      <point x="1529" y="2030" type="curve"/>
      <point x="1570" y="2091" type="line"/>
      <point x="1959" y="1866"/>
      <point x="2040" y="2002"/>
      <point x="2326" y="1884" type="curve" smooth="yes"/>
      <point x="2506" y="1804"/>
      <point x="2579" y="1616"/>
      <point x="2492" y="1466" type="curve" smooth="yes"/>
      <point x="2399" y="1306"/>
      <point x="2184" y="1301"/>
    </contour>
    <contour>
      <point x="2490" y="2269" type="curve" smooth="yes"/>
      <point x="2199" y="2167"/>
      <point x="1963" y="2246"/>
      <point x="1574" y="2021" type="curve"/>
      <point x="1533" y="2091" type="line"/>
      <point x="1922" y="2316"/>
      <point x="2012" y="2514"/>
      <point x="2258" y="2712" type="curve" smooth="yes"/>
      <point x="2416" y="2829"/>
      <point x="2611" y="2847"/>
      <point x="2704" y="2687" type="curve" smooth="yes"/>
      <point x="2795" y="2533"/>
      <point x="2687" y="2335"/>
    </contour>
    <contour>
      <point x="1966" y="2879" type="curve" smooth="yes"/>
      <point x="1887" y="2570"/>
      <point x="1647" y="2448"/>
      <point x="1586" y="2058" type="curve"/>
      <point x="1512" y="2058" type="line"/>
      <point x="1594" y="2529"/>
      <point x="1442" y="2583"/>
      <point x="1442" y="2890" type="curve" smooth="yes"/>
      <point x="1442" y="3093"/>
      <point x="1568" y="3244"/>
      <point x="1742" y="3244" type="curve" smooth="yes"/>
      <point x="1906" y="3244"/>
      <point x="2022" y="3104"/>
    </contour>
  </outline>
</glyph>
<glyph name="less" format="2">
  <advance width="2293"/>
  <unicode hex="003C"/>
  <outline>
    <contour>
      <point x="451" y="1556" type="line"/>
      <point x="451" y="1638" type="line"/>
      <point x="2417" y="2458" type="line"/>
      <point x="2417" y="2376" type="line"/>
    </contour>
    <contour>
      <point x="451" y="1536" type="line"/>
      <point x="451" y="1618" type="line"/>
      <point x="2048" y="799" type="line"/>
      <point x="2048" y="717" type="line"/>
    </contour>
  </outline>
</glyph>
<glyph name="G" format="2">
  <advance width="3088"/>
  <unicode hex="0047"/>
  <outline>
    <contour>
      <point x="2209" y="1147" type="line"/>
      <point x="2758" y="1147" type="line"/>
      <point x="2634" y="676" type="line"/>
      <point x="2450" y="418"/>
      <point x="1984" y="-41"/>
      <point x="1316" y="-41" type="curve" smooth="yes"/>
      <point x="668" y="-41"/>
      <point x="220" y="356"/>
      <point x="220" y="1044" type="curve" smooth="yes"/>
      <point x="220" y="2182"/>
      <point x="1089" y="3113"/>
      <point x="2053" y="3113" type="curve" smooth="yes"/>
      <point x="2557" y="3113"/>
      <point x="2919" y="2787"/>
      <point x="2886" y="2201" type="curve"/>
      <point x="2804" y="2201" type="line"/>
      <point x="2832" y="2742"/>
      <point x="2469" y="2999"/>
      <point x="2125" y="2999" type="curve" smooth="yes"/>
      <point x="1269" y="2999"/>
      <point x="784" y="1718"/>
      <point x="784" y="799" type="curve" smooth="yes"/>
      <point x="784" y="381"/>
      <point x="901" y="51"/>
      <point x="1296" y="51" type="curve" smooth="yes"/>
      <point x="1732" y="51"/>
      <point x="1959" y="381"/>
      <point x="2041" y="512" type="curve"/>
    </contour>
    <contour>
      <point x="1828" y="1208" type="line"/>
      <point x="3036" y="1208" type="line"/>
      <point x="3036" y="1126" type="line"/>
      <point x="1828" y="1126" type="line"/>
    </contour>
    <contour>
      <point x="3028" y="3072" type="line"/>
      <point x="3090" y="3072" type="line"/>
      <point x="2886" y="2201" type="line"/>
      <point x="2804" y="2201" type="line"/>
      <point x="2834" y="2441" type="line"/>
      <point x="2808" y="2556"/>
      <point x="2770" y="2666"/>
      <point x="2702" y="2780" type="curve"/>
    </contour>
  </outline>
</glyph>
<glyph name="I" format="2">
  <advance width="1550"/>
  <unicode hex="0049"/>
  <outline>
    <contour>
      <point x="-169" y="82" type="line"/>
      <point x="1265" y="82" type="line"/>
      <point x="1265" y="0" type="line"/>
      <point x="-169" y="0" type="line"/>
    </contour>
    <contour>
      <point x="507" y="3072" type="line"/>
      <point x="1941" y="3072" type="line"/>
      <point x="1941" y="2990" type="line"/>
      <point x="507" y="2990" type="line"/>
    </contour>
    <contour>
      <point x="978" y="3072" type="line"/>
      <point x="1490" y="3072" type="line"/>
      <point x="794" y="0" type="line"/>
      <point x="282" y="0" type="line"/>
    </contour>
  </outline>
</glyph>
<glyph name="J" format="2">
  <advance width="1934"/>
  <unicode hex="004A"/>
  <outline>
    <contour>
      <point x="849" y="3072" type="line"/>
      <point x="2324" y="3072" type="line"/>
      <point x="2324" y="2990" type="line"/>
      <point x="849" y="2990" type="line"/>
    </contour>
    <contour>
      <point x="64" y="130" type="curve"/>
      <point x="105" y="68"/>
      <point x="204" y="-39"/>
      <point x="378" y="-39" type="curve" smooth="yes"/>
      <point x="628" y="-39"/>
      <point x="751" y="205"/>
      <point x="882" y="778" type="curve" smooth="yes"/>
      <point x="1402" y="3072" type="line"/>
      <point x="1914" y="3072" type="line"/>
      <point x="1377" y="692" type="line"/>
      <point x="1162" y="354"/>
      <point x="863" y="-123"/>
      <point x="408" y="-123" type="curve" smooth="yes"/>
      <point x="72" y="-123"/>
      <point x="-128" y="143"/>
      <point x="-128" y="389" type="curve" smooth="yes"/>
      <point x="-128" y="581"/>
      <point x="4" y="716"/>
      <point x="178" y="716" type="curve" smooth="yes"/>
      <point x="321" y="716"/>
      <point x="468" y="613"/>
      <point x="468" y="414" type="curve" smooth="yes"/>
      <point x="468" y="219"/>
      <point x="318" y="114"/>
      <point x="148" y="114" type="curve" smooth="yes"/>
      <point x="126" y="114"/>
      <point x="82" y="122"/>
    </contour>
  </outline>
</glyph>
<glyph name="S" format="2">
  <advance width="2353"/>
  <unicode hex="0053"/>
  <outline>
    <contour>
      <point x="2233" y="2518" type="line"/>
      <point x="2202" y="2635"/>
      <point x="2145" y="2727"/>
      <point x="2098" y="2826" type="curve"/>
      <point x="2436" y="3113" type="line"/>
      <point x="2498" y="3113" type="line"/>
      <point x="2300" y="2232" type="line"/>
      <point x="2219" y="2232" type="line"/>
    </contour>
    <contour>
      <point x="2300" y="2232" type="curve"/>
      <point x="2219" y="2232" type="line"/>
      <point x="2188" y="2678"/>
      <point x="1957" y="3019"/>
      <point x="1531" y="3019" type="curve" smooth="yes"/>
      <point x="1230" y="3019"/>
      <point x="888" y="2813"/>
      <point x="888" y="2509" type="curve" smooth="yes"/>
      <point x="888" y="1802"/>
      <point x="2152" y="2037"/>
      <point x="2152" y="962" type="curve" smooth="yes"/>
      <point x="2152" y="389"/>
      <point x="1619" y="-61"/>
      <point x="1000" y="-61" type="curve" smooth="yes"/>
      <point x="361" y="-61"/>
      <point x="163" y="368"/>
      <point x="120" y="860" type="curve"/>
      <point x="202" y="860" type="line"/>
      <point x="233" y="454"/>
      <point x="431" y="31"/>
      <point x="959" y="31" type="curve" smooth="yes"/>
      <point x="1383" y="31"/>
      <point x="1728" y="270"/>
      <point x="1728" y="645" type="curve" smooth="yes"/>
      <point x="1728" y="1454"/>
      <point x="468" y="1218"/>
      <point x="468" y="2150" type="curve" smooth="yes"/>
      <point x="468" y="2784"/>
      <point x="1076" y="3113"/>
      <point x="1490" y="3113" type="curve" smooth="yes"/>
      <point x="2014" y="3113"/>
      <point x="2269" y="2769"/>
    </contour>
    <contour>
      <point x="-25" y="-41" type="line"/>
      <point x="-87" y="-41" type="line"/>
      <point x="120" y="860" type="line"/>
      <point x="202" y="860" type="line"/>
      <point x="224" y="537" type="line"/>
      <point x="251" y="439"/>
      <point x="281" y="351"/>
      <point x="332" y="278" type="curve"/>
    </contour>
  </outline>
</glyph>
<glyph name="T" format="2">
  <advance width="2649"/>
  <unicode hex="0054"/>
  <outline>
    <contour>
      <point x="412" y="82" type="line"/>
      <point x="1825" y="82" type="line"/>
      <point x="1825" y="0" type="line"/>
      <point x="412" y="0" type="line"/>
    </contour>
    <contour>
      <point x="1534" y="3072" type="line"/>
      <point x="2046" y="3072" type="line"/>
      <point x="1334" y="0" type="line"/>
      <point x="821" y="0" type="line"/>
    </contour>
    <contour>
      <point x="2363" y="2990" type="curve" smooth="yes"/>
      <point x="1176" y="2990" type="line" smooth="yes"/>
      <point x="718" y="2990"/>
      <point x="534" y="2636"/>
      <point x="384" y="2120" type="curve"/>
      <point x="302" y="2120" type="line"/>
      <point x="520" y="3072" type="line"/>
      <point x="3060" y="3072" type="line"/>
      <point x="2841" y="2120" type="line"/>
      <point x="2760" y="2120" type="line"/>
      <point x="2848" y="2640"/>
      <point x="2821" y="2990"/>
    </contour>
  </outline>
</glyph>
<glyph name="bracketleft" format="2">
  <advance width="1443"/>
  <unicode hex="005B"/>
  <outline>
    <contour>
      <point x="819" y="3195" type="line"/>
      <point x="1874" y="3195" type="line"/>
      <point x="1874" y="3113" type="line"/>
      <point x="1270" y="3113" type="line"/>
      <point x="450" y="-532" type="line"/>
      <point x="1014" y="-532" type="line"/>
      <point x="1014" y="-614" type="line"/>
      <point x="-41" y="-614" type="line"/>
    </contour>
  </outline>
</glyph>
<glyph name="grave" format="2">
  <advance width="1637"/>
  <unicode hex="0060"/>
  <outline>
    <contour>
      <point x="979" y="2908" type="line" smooth="yes"/>
      <point x="870" y="2902"/>
      <point x="774" y="2983"/>
      <point x="774" y="3092" type="curve" smooth="yes"/>
      <point x="774" y="3201"/>
      <point x="882" y="3312"/>
      <point x="1020" y="3269" type="curve" smooth="yes"/>
      <point x="1970" y="3000" type="line"/>
      <point x="1952" y="2918" type="line"/>
    </contour>
  </outline>
</glyph>
<glyph name="a" format="2">
  <advance width="2580"/>
  <unicode hex="0061"/>
  <outline>
    <contour>
      <point x="1552" y="1286" type="curve" smooth="yes"/>
      <point x="1552" y="1564"/>
      <point x="1430" y="1734"/>
      <point x="1282" y="1734" type="curve" smooth="yes"/>
      <point x="948" y="1734"/>
      <point x="610" y="1102"/>
      <point x="610" y="553" type="curve" smooth="yes"/>
      <point x="610" y="291"/>
      <point x="698" y="119"/>
      <point x="876" y="119" type="curve" smooth="yes"/>
      <point x="1270" y="119"/>
      <point x="1552" y="860"/>
    </contour>
    <contour>
      <point x="1618" y="1286" type="curve" smooth="yes"/>
      <point x="1618" y="844"/>
      <point x="1311" y="-41"/>
      <point x="733" y="-41" type="curve" smooth="yes"/>
      <point x="450" y="-41"/>
      <point x="82" y="123"/>
      <point x="82" y="655" type="curve" smooth="yes"/>
      <point x="82" y="1474"/>
      <point x="724" y="1924"/>
      <point x="1140" y="1924" type="curve" smooth="yes"/>
      <point x="1451" y="1924"/>
      <point x="1618" y="1663"/>
    </contour>
    <contour>
      <point x="2478" y="668" type="line"/>
      <point x="2322" y="258"/>
      <point x="2061" y="-41"/>
      <point x="1698" y="-41" type="curve" smooth="yes"/>
      <point x="1474" y="-41"/>
      <point x="1380" y="62"/>
      <point x="1380" y="268" type="curve" smooth="yes"/>
      <point x="1380" y="288"/>
      <point x="1384" y="333"/>
      <point x="1388" y="358" type="curve" smooth="yes"/>
      <point x="1475" y="745" type="line"/>
      <point x="1577" y="1077" type="line"/>
      <point x="1602" y="1327" type="line"/>
      <point x="1740" y="1884" type="line"/>
      <point x="2204" y="1884" type="line"/>
      <point x="1804" y="250" type="line" smooth="yes"/>
      <point x="1799" y="225"/>
      <point x="1796" y="196"/>
      <point x="1796" y="176" type="curve" smooth="yes"/>
      <point x="1796" y="131"/>
      <point x="1817" y="98"/>
      <point x="1870" y="98" type="curve" smooth="yes"/>
      <point x="2081" y="98"/>
      <point x="2302" y="422"/>
      <point x="2396" y="692" type="curve"/>
    </contour>
  </outline>
</glyph>
<glyph name="b" format="2">
  <advance width="2428"/>
  <unicode hex="0062"/>
  <outline>
    <contour>
      <point x="856" y="2990" type="line"/>
      <point x="557" y="2990" type="line"/>
      <point x="557" y="3072" type="line"/>
      <point x="1348" y="3072" type="line"/>
      <point x="762" y="522" type="line"/>
      <point x="762" y="250"/>
      <point x="830" y="38"/>
      <point x="1039" y="38" type="curve" smooth="yes"/>
      <point x="1414" y="38"/>
      <point x="1757" y="809"/>
      <point x="1757" y="1358" type="curve" smooth="yes"/>
      <point x="1757" y="1620"/>
      <point x="1669" y="1761"/>
      <point x="1491" y="1761" type="curve" smooth="yes"/>
      <point x="1231" y="1761"/>
      <point x="967" y="1409"/>
      <point x="856" y="942" type="curve"/>
      <point x="815" y="942" type="line"/>
      <point x="967" y="1647"/>
      <point x="1310" y="1921"/>
      <point x="1642" y="1921" type="curve" smooth="yes"/>
      <point x="1916" y="1921"/>
      <point x="2286" y="1794"/>
      <point x="2286" y="1270" type="curve" smooth="yes"/>
      <point x="2286" y="410"/>
      <point x="1669" y="-41"/>
      <point x="1028" y="-41" type="curve" smooth="yes"/>
      <point x="655" y="-41"/>
      <point x="420" y="193"/>
      <point x="287" y="492" type="curve"/>
    </contour>
  </outline>
</glyph>
<glyph name="t" format="2">
  <advance width="1433"/>
  <unicode hex="0074"/>
  <outline>
    <contour>
      <point x="184" y="1884" type="line"/>
      <point x="1393" y="1884" type="line"/>
      <point x="1393" y="1802" type="line"/>
      <point x="184" y="1802" type="line"/>
    </contour>
    <contour>
      <point x="1323" y="668" type="line"/>
      <point x="1167" y="258"/>
      <point x="906" y="-41"/>
      <point x="543" y="-41" type="curve" smooth="yes"/>
      <point x="319" y="-41"/>
      <point x="203" y="52"/>
      <point x="203" y="278" type="curve" smooth="yes"/>
      <point x="203" y="298"/>
      <point x="207" y="343"/>
      <point x="212" y="368" type="curve" smooth="yes"/>
      <point x="630" y="2294" type="line"/>
      <point x="1098" y="2294" type="line"/>
      <point x="648" y="250" type="line" smooth="yes"/>
      <point x="644" y="225"/>
      <point x="640" y="196"/>
      <point x="640" y="176" type="curve" smooth="yes"/>
      <point x="640" y="131"/>
      <point x="661" y="98"/>
      <point x="714" y="98" type="curve" smooth="yes"/>
      <point x="925" y="98"/>
      <point x="1147" y="422"/>
      <point x="1241" y="692" type="curve"/>
    </contour>
  </outline>
</glyph>
<glyph name="u" format="2">
  <advance width="2626"/>
  <unicode hex="0075"/>
  <outline>
    <contour>
      <point x="1041" y="1884" type="line"/>
      <point x="746" y="623" type="line" smooth="yes"/>
      <point x="672" y="299"/>
      <point x="664" y="90"/>
      <point x="832" y="90" type="curve" smooth="yes"/>
      <point x="1041" y="90"/>
      <point x="1443" y="549"/>
      <point x="1599" y="1176" type="curve"/>
      <point x="1660" y="1176" type="line"/>
      <point x="1494" y="553"/>
      <point x="1160" y="-41"/>
      <point x="687" y="-41" type="curve" smooth="yes"/>
      <point x="290" y="-41"/>
      <point x="197" y="242"/>
      <point x="271" y="578" type="curve" smooth="yes"/>
      <point x="546" y="1802" type="line"/>
      <point x="276" y="1802" type="line"/>
      <point x="276" y="1884" type="line"/>
    </contour>
    <contour>
      <point x="2524" y="668" type="line"/>
      <point x="2368" y="258"/>
      <point x="2107" y="-41"/>
      <point x="1744" y="-41" type="curve" smooth="yes"/>
      <point x="1520" y="-41"/>
      <point x="1405" y="52"/>
      <point x="1405" y="278" type="curve" smooth="yes"/>
      <point x="1405" y="298"/>
      <point x="1409" y="343"/>
      <point x="1413" y="368" type="curve" smooth="yes"/>
      <point x="1754" y="1884" type="line"/>
      <point x="2229" y="1884" type="line"/>
      <point x="1850" y="250" type="line" smooth="yes"/>
      <point x="1845" y="225"/>
      <point x="1841" y="196"/>
      <point x="1841" y="176" type="curve" smooth="yes"/>
      <point x="1841" y="131"/>
      <point x="1861" y="98"/>
      <point x="1914" y="98" type="curve" smooth="yes"/>
      <point x="2125" y="98"/>
      <point x="2348" y="422"/>
      <point x="2442" y="692" type="curve"/>
    </contour>
  </outline>
</glyph>
<glyph name="w" format="2">
  <advance width="3517"/>
  <unicode hex="0077"/>
  <outline>
    <contour>
      <point x="872" y="632" type="line" smooth="yes"/>
      <point x="766" y="317"/>
      <point x="799" y="91"/>
      <point x="987" y="91" type="curve" smooth="yes"/>
      <point x="1225" y="91"/>
      <point x="1611" y="549"/>
      <point x="1767" y="1176" type="curve"/>
      <point x="1829" y="1176" type="line"/>
      <point x="1673" y="553"/>
      <point x="1342" y="-41"/>
      <point x="828" y="-41" type="curve" smooth="yes"/>
      <point x="410" y="-41"/>
      <point x="276" y="232"/>
      <point x="389" y="578" type="curve" smooth="yes"/>
      <point x="737" y="1634" type="line" smooth="yes"/>
      <point x="745" y="1659"/>
      <point x="750" y="1688"/>
      <point x="750" y="1708" type="curve" smooth="yes"/>
      <point x="750" y="1753"/>
      <point x="725" y="1786"/>
      <point x="672" y="1786" type="curve" smooth="yes"/>
      <point x="451" y="1786"/>
      <point x="242" y="1462"/>
      <point x="143" y="1192" type="curve"/>
      <point x="61" y="1217" type="line"/>
      <point x="227" y="1627"/>
      <point x="459" y="1925"/>
      <point x="842" y="1925" type="curve" smooth="yes"/>
      <point x="1066" y="1925"/>
      <point x="1187" y="1822"/>
      <point x="1187" y="1626" type="curve" smooth="yes"/>
      <point x="1187" y="1565"/>
      <point x="1174" y="1515"/>
      <point x="1166" y="1486" type="curve" smooth="yes"/>
    </contour>
    <contour>
      <point x="1935" y="1884" type="line"/>
      <point x="2406" y="1884" type="line"/>
      <point x="2144" y="774" type="line" smooth="yes"/>
      <point x="2062" y="430"/>
      <point x="2078" y="71"/>
      <point x="2412" y="71" type="curve" smooth="yes"/>
      <point x="2974" y="71"/>
      <point x="3351" y="967"/>
      <point x="3351" y="1409" type="curve" smooth="yes"/>
      <point x="3351" y="1489"/>
      <point x="3341" y="1553"/>
      <point x="3326" y="1587" type="curve"/>
      <point x="3314" y="1478"/>
      <point x="3208" y="1352"/>
      <point x="3042" y="1352" type="curve" smooth="yes"/>
      <point x="2847" y="1352"/>
      <point x="2760" y="1504"/>
      <point x="2760" y="1637" type="curve" smooth="yes"/>
      <point x="2760" y="1791"/>
      <point x="2889" y="1921"/>
      <point x="3067" y="1921" type="curve" smooth="yes"/>
      <point x="3315" y="1921"/>
      <point x="3437" y="1690"/>
      <point x="3437" y="1409" type="curve" smooth="yes"/>
      <point x="3437" y="958"/>
      <point x="3088" y="-41"/>
      <point x="2310" y="-41" type="curve" smooth="yes"/>
      <point x="1935" y="-41"/>
      <point x="1661" y="146"/>
      <point x="1661" y="729" type="curve"/>
    </contour>
  </outline>
</glyph>
<glyph name="brokenbar" format="2">
  <advance width="901"/>
  <unicode hex="00A6"/>
  <outline>
    <contour>
      <point x="410" y="680" type="line"/>
      <point x="483" y="680" type="line"/>
      <point x="90" y="-1024" type="line"/>
      <point x="16" y="-1024" type="line"/>
    </contour>
    <contour>
      <point x="991" y="3195" type="line"/>
      <point x="1065" y="3195" type="line"/>
      <point x="713" y="1675" type="line"/>
      <point x="639" y="1675" type="line"/>
    </contour>
  </outline>
</glyph>
<glyph name="acute" format="2">
  <advance width="1637"/>
  <unicode hex="00B4"/>
  <outline>
    <contour>
      <point x="1915" y="2898" type="curve" smooth="yes"/>
      <point x="942" y="2908" type="line"/>
      <point x="924" y="2990" type="line"/>
      <point x="1874" y="3259" type="line" smooth="yes"/>
      <point x="2012" y="3302"/>
      <point x="2120" y="3191"/>
      <point x="2120" y="3082" type="curve" smooth="yes"/>
      <point x="2120" y="2973"/>
      <point x="2024" y="2892"/>
    </contour>
  </outline>
</glyph>
<glyph name="divide" format="2">
  <advance width="2344"/>
  <unicode hex="00F7"/>
  <outline>
    <contour>
      <point x="386" y="1659" type="line"/>
      <point x="2372" y="1659" type="line"/>
      <point x="2372" y="1577" type="line"/>
      <point x="386" y="1577" type="line"/>
    </contour>
    <contour>
      <point x="901" y="840" type="curve" smooth="yes"/>
      <point x="901" y="1009"/>
      <point x="1039" y="1147"/>
      <point x="1208" y="1147" type="curve" smooth="yes"/>
      <point x="1377" y="1147"/>
      <point x="1515" y="1009"/>
      <point x="1515" y="840" type="curve" smooth="yes"/>
      <point x="1515" y="671"/>
      <point x="1377" y="532"/>
      <point x="1208" y="532" type="curve" smooth="yes"/>
      <point x="1039" y="532"/>
      <point x="901" y="671"/>
    </contour>
    <contour>
      <point x="1229" y="2345" type="curve" smooth="yes"/>
      <point x="1229" y="2514"/>
      <point x="1367" y="2652"/>
      <point x="1536" y="2652" type="curve" smooth="yes"/>
      <point x="1705" y="2652"/>
      <point x="1843" y="2514"/>
      <point x="1843" y="2345" type="curve" smooth="yes"/>
      <point x="1843" y="2176"/>
      <point x="1705" y="2038"/>
      <point x="1536" y="2038" type="curve" smooth="yes"/>
      <point x="1367" y="2038"/>
      <point x="1229" y="2176"/>
    </contour>
  </outline>
</glyph>
<glyph name="kgreenlandic" format="2">
  <advance width="2429"/>
  <unicode hex="0138"/>
  <outline>
    <contour>
      <point x="2323" y="668" type="line"/>
      <point x="2167" y="258"/>
      <point x="1914" y="-41"/>
      <point x="1562" y="-41" type="curve" smooth="yes"/>
      <point x="1338" y="-41"/>
      <point x="1218" y="52"/>
      <point x="1218" y="278" type="curve" smooth="yes"/>
      <point x="1218" y="298"/>
      <point x="1222" y="343"/>
      <point x="1226" y="368" type="curve" smooth="yes"/>
      <point x="1270" y="573" type="line" smooth="yes"/>
      <point x="1322" y="811"/>
      <point x="1452" y="1098"/>
      <point x="1200" y="1098" type="curve" smooth="yes"/>
      <point x="960" y="1098"/>
      <point x="893" y="917"/>
      <point x="856" y="778" type="curve"/>
      <point x="794" y="778" type="line"/>
      <point x="889" y="1145"/>
      <point x="1085" y="1189"/>
      <point x="1284" y="1189" type="curve" smooth="yes"/>
      <point x="1567" y="1189"/>
      <point x="1831" y="1028"/>
      <point x="1708" y="496" type="curve" smooth="yes"/>
      <point x="1640" y="192" type="line" smooth="yes"/>
      <point x="1640" y="184"/>
      <point x="1636" y="164"/>
      <point x="1636" y="156" type="curve" smooth="yes"/>
      <point x="1636" y="111"/>
      <point x="1665" y="90"/>
      <point x="1718" y="90" type="curve" smooth="yes"/>
      <point x="1925" y="90"/>
      <point x="2147" y="422"/>
      <point x="2241" y="692" type="curve"/>
    </contour>
    <contour>
      <point x="923" y="979" type="curve"/>
      <point x="963" y="1046" type="line"/>
      <point x="983" y="1028"/>
      <point x="1028" y="1016"/>
      <point x="1066" y="1016" type="curve" smooth="yes"/>
      <point x="1230" y="1016"/>
      <point x="1309" y="1221"/>
      <point x="1415" y="1483" type="curve" smooth="yes"/>
      <point x="1530" y="1762"/>
      <point x="1684" y="1925"/>
      <point x="1899" y="1925" type="curve" smooth="yes"/>
      <point x="2103" y="1925"/>
      <point x="2286" y="1786"/>
      <point x="2286" y="1552" type="curve" smooth="yes"/>
      <point x="2286" y="1358"/>
      <point x="2165" y="1266"/>
      <point x="2032" y="1266" type="curve" smooth="yes"/>
      <point x="1899" y="1266"/>
      <point x="1786" y="1366"/>
      <point x="1786" y="1511" type="curve" smooth="yes"/>
      <point x="1786" y="1647"/>
      <point x="1888" y="1745"/>
      <point x="2024" y="1745" type="curve" smooth="yes"/>
      <point x="2079" y="1745"/>
      <point x="2122" y="1724"/>
      <point x="2138" y="1716" type="curve"/>
      <point x="2107" y="1804"/>
      <point x="2001" y="1843"/>
      <point x="1907" y="1843" type="curve" smooth="yes"/>
      <point x="1731" y="1843"/>
      <point x="1608" y="1724"/>
      <point x="1502" y="1458" type="curve" smooth="yes"/>
      <point x="1391" y="1179"/>
      <point x="1281" y="938"/>
      <point x="1066" y="938" type="curve" smooth="yes"/>
      <point x="999" y="938"/>
      <point x="941" y="963"/>
    </contour>
    <contour>
      <point x="622" y="1802" type="line"/>
      <point x="274" y="1802" type="line"/>
      <point x="274" y="1884" type="line"/>
      <point x="1113" y="1884" type="line"/>
      <point x="676" y="0" type="line"/>
      <point x="205" y="0" type="line"/>
    </contour>
  </outline>
</glyph>
<glyph name="Lslash" format="2">
  <advance width="2393"/>
  <unicode hex="0141"/>
  <outline>
    <contour>
      <point x="153" y="1475" type="line"/>
      <point x="1669" y="2376" type="line"/>
      <point x="1669" y="2273" type="line"/>
      <point x="153" y="1372" type="line"/>
    </contour>
    <component base="L"/>
  </outline>
</glyph>
<glyph name="uniFB01" format="2">
  <advance width="2623"/>
  <unicode hex="FB01"/>
  <outline>
    <contour>
      <point x="2542" y="668" type="line"/>
      <point x="2386" y="258"/>
      <point x="2125" y="-41"/>
      <point x="1762" y="-41" type="curve" smooth="yes"/>
      <point x="1538" y="-41"/>
      <point x="1425" y="52"/>
      <point x="1425" y="278" type="curve" smooth="yes"/>
      <point x="1425" y="298"/>
      <point x="1429" y="343"/>
      <point x="1434" y="368" type="curve" smooth="yes"/>
      <point x="1766" y="1802" type="line"/>
      <point x="248" y="1802" type="line"/>
      <point x="248" y="1884" type="line"/>
      <point x="2258" y="1884" type="line"/>
      <point x="1870" y="250" type="line" smooth="yes"/>
      <point x="1866" y="225"/>
      <point x="1862" y="196"/>
      <point x="1862" y="176" type="curve" smooth="yes"/>
      <point x="1862" y="131"/>
      <point x="1883" y="98"/>
      <point x="1936" y="98" type="curve" smooth="yes"/>
      <point x="2147" y="98"/>
      <point x="2366" y="422"/>
      <point x="2460" y="692" type="curve"/>
    </contour>
    <contour>
      <point x="2174" y="2905" type="curve"/>
      <point x="2134" y="2949"/>
      <point x="2055" y="3029"/>
      <point x="1791" y="3029" type="curve" smooth="yes"/>
      <point x="1432" y="3029"/>
      <point x="1207" y="2712"/>
      <point x="1118" y="2212" type="curve" smooth="yes"/>
      <point x="710" y="-49" type="line" smooth="yes"/>
      <point x="605" y="-632"/>
      <point x="220" y="-1065"/>
      <point x="-312" y="-1065" type="curve" smooth="yes"/>
      <point x="-675" y="-1065"/>
      <point x="-840" y="-820"/>
      <point x="-840" y="-628" type="curve" smooth="yes"/>
      <point x="-840" y="-440"/>
      <point x="-720" y="-334"/>
      <point x="-566" y="-334" type="curve" smooth="yes"/>
      <point x="-433" y="-334"/>
      <point x="-285" y="-412"/>
      <point x="-285" y="-596" type="curve" smooth="yes"/>
      <point x="-285" y="-780"/>
      <point x="-428" y="-869"/>
      <point x="-568" y="-869" type="curve" smooth="yes"/>
      <point x="-609" y="-869"/>
      <point x="-638" y="-857"/>
      <point x="-646" y="-857" type="curve"/>
      <point x="-606" y="-901"/>
      <point x="-527" y="-981"/>
      <point x="-335" y="-981" type="curve" smooth="yes"/>
      <point x="-48" y="-981"/>
      <point x="150" y="-664"/>
      <point x="236" y="-164" type="curve" smooth="yes"/>
      <point x="629" y="2097" type="line" smooth="yes"/>
      <point x="731" y="2683"/>
      <point x="1154" y="3113"/>
      <point x="1768" y="3113" type="curve" smooth="yes"/>
      <point x="2213" y="3113"/>
      <point x="2367" y="2868"/>
      <point x="2367" y="2676" type="curve" smooth="yes"/>
      <point x="2367" y="2488"/>
      <point x="2248" y="2382"/>
      <point x="2094" y="2382" type="curve" smooth="yes"/>
      <point x="1961" y="2382"/>
      <point x="1813" y="2460"/>
      <point x="1813" y="2644" type="curve" smooth="yes"/>
      <point x="1813" y="2828"/>
      <point x="1955" y="2917"/>
      <point x="2095" y="2917" type="curve" smooth="yes"/>
      <point x="2133" y="2917"/>
      <point x="2163" y="2906"/>
    </contour>
  </outline>
</glyph>
